<?xml version="1.0" encoding="UTF-8"?>
<svg id="Calque_2" data-name="Calque 2" xmlns="http://www.w3.org/2000/svg" viewBox="0 0 104.16 104.16">
  <defs>
    <style>
      .cls-1 {
        fill: #fff;
      }

      .cls-2 {
        fill: #be1622;
      }
    </style>
  </defs>
  <g id="Calque_3" data-name="Calque 3">
    <g>
      <path class="cls-2" d="M104.16,52.08C104.16,23.32,80.84,0,52.08,0S0,23.32,0,52.08c0,25.99,19.04,47.54,43.94,51.45v-36.39h-13.22v-15.05h13.22v-11.47c0-13.05,7.77-20.26,19.67-20.26,5.7,0,11.66,1.02,11.66,1.02v12.82h-6.57c-6.47,0-8.49,4.01-8.49,8.13v9.77h14.44l-2.31,15.05h-12.14v36.39c24.9-3.91,43.94-25.45,43.94-51.45Z"/>
      <path class="cls-1" d="M72.35,67.13l2.31-15.05h-14.44v-9.77c0-4.12,2.02-8.13,8.49-8.13h6.57v-12.82s-5.96-1.02-11.66-1.02c-11.9,0-19.67,7.21-19.67,20.26v11.47h-13.22v15.05h13.22v36.39c2.65.42,5.37.63,8.14.63s5.49-.22,8.14-.63v-36.39h12.14Z"/>
    </g>
  </g>
</svg>