<?xml version="1.0" encoding="UTF-8"?>
<svg id="Calque_2" data-name="Calque 2" xmlns="http://www.w3.org/2000/svg" viewBox="0 0 104.16 104.16">
  <defs>
    <style>
      .cls-1 {
        fill: #fff;
      }

      .cls-2 {
        fill: #be1622;
      }
    </style>
  </defs>
  <g id="Calque_3" data-name="Calque 3">
    <g>
      <circle class="cls-2" cx="52.08" cy="52.08" r="52.08"/>
      <g>
        <path class="cls-1" d="M68.25,32.38c-1.98,0-3.58,1.6-3.58,3.58s1.6,3.58,3.58,3.58,3.58-1.6,3.58-3.58-1.6-3.58-3.58-3.58Z"/>
        <path class="cls-1" d="M52.33,36.97c-8.29,0-15.04,6.75-15.04,15.04s6.75,15.04,15.04,15.04,15.04-6.75,15.04-15.04-6.75-15.04-15.04-15.04ZM52.33,61.64c-5.31,0-9.63-4.32-9.63-9.63s4.32-9.63,9.63-9.63,9.63,4.32,9.63,9.63-4.32,9.63-9.63,9.63Z"/>
        <path class="cls-1" d="M64.27,82.54h-24.38c-10.11,0-18.34-8.23-18.34-18.34v-24.38c0-10.11,8.23-18.34,18.34-18.34h24.38c10.11,0,18.34,8.23,18.34,18.34v24.38c0,10.11-8.23,18.34-18.34,18.34ZM39.89,27.22c-6.95,0-12.6,5.65-12.6,12.6v24.38c0,6.95,5.65,12.6,12.6,12.6h24.38c6.95,0,12.6-5.65,12.6-12.6v-24.38c0-6.95-5.65-12.6-12.6-12.6h-24.38Z"/>
      </g>
    </g>
  </g>
</svg>