<?xml version="1.0" encoding="UTF-8"?>
<svg id="Calque_2" data-name="Calque 2" xmlns="http://www.w3.org/2000/svg" viewBox="0 0 364.16 459.99">
  <defs>
    <style>
      .cls-1 {
        fill: #fff;
      }

      .cls-2 {
        fill: #be1622;
      }
    </style>
  </defs>
  <g id="Calque_3" data-name="Calque 3">
    <g>
      <path class="cls-2" d="M364.16,459.99c-20.76-2.6-41.6-7.64-61.99-15.17-57.61-21.26-111-60.1-163.23-118.72-29.39-33-52.6-65.41-70.97-99.08C22.87,144.33,0,67.95,0,0h86.59c0,53.3,19.31,115.72,57.4,185.55,15.17,27.81,34.67,54.95,59.61,82.95,42.54,47.76,84.59,78.86,128.55,95.08,10.61,3.92,21.33,6.87,32.01,8.87"/>
      <path class="cls-1" d="M346.94,401.92l-5.01,21.06c-9.63-2.3-19.23-5.2-28.52-8.63-24.58-9.07-48.99-22.17-72.56-38.93l12.55-17.64c22.01,15.65,44.72,27.85,67.51,36.26,8.48,3.13,17.25,5.78,26.04,7.87ZM175.92,286.21l-16.29,14.26c-26.06-29.78-46.72-58.89-63.15-89.01l-.61-1.12,19.01-10.35.62,1.14c15.64,28.67,35.41,56.51,60.42,85.08ZM72.16,102.83l-20.58,6.72C38.9,70.71,32.47,33.85,32.47,0h21.65c0,31.57,6.07,66.16,18.04,102.83Z"/>
    </g>
  </g>
</svg>