<?xml version="1.0" encoding="UTF-8"?>
<svg id="Calque_2" data-name="Calque 2" xmlns="http://www.w3.org/2000/svg" viewBox="0 0 459.99 361.07">
  <defs>
    <style>
      .cls-1 {
        fill: #fff;
      }

      .cls-2 {
        fill: #be1622;
      }
    </style>
  </defs>
  <g id="Calque_3" data-name="Calque 3">
    <g>
      <path class="cls-2" d="M459.99,0c-2.6,20.58-7.64,41.25-15.17,61.47-21.26,57.12-60.1,110.06-118.72,161.84-33,29.14-65.41,52.15-99.08,70.37C144.33,338.4,67.95,361.07,0,361.07v-85.86c53.3,0,115.72-19.15,185.55-56.91,27.81-15.04,54.95-34.38,82.95-59.11,47.76-42.18,78.86-83.87,95.08-127.46C367.5,21.22,370.45,10.58,372.45,0"/>
      <path class="cls-1" d="M401.92,17.07l21.06,4.97c-2.3,9.55-5.2,19.07-8.63,28.28-9.07,24.37-22.17,48.58-38.93,71.95l-17.64-12.44c15.65-21.82,27.85-44.34,36.26-66.94,3.13-8.41,5.78-17.1,7.87-25.82ZM286.21,186.65l14.26,16.15c-29.78,25.84-58.89,46.33-89.01,62.61l-1.12.6-10.35-18.85,1.14-.61c28.67-15.51,56.51-35.11,85.08-59.91ZM102.83,289.52l6.72,20.41C70.71,322.5,33.85,328.88,0,328.88v-21.47c31.57,0,66.16-6.02,102.83-17.89Z"/>
    </g>
  </g>
</svg>