<?xml version="1.0" encoding="UTF-8"?>
<svg id="Calque_2" data-name="Calque 2" xmlns="http://www.w3.org/2000/svg" viewBox="0 0 1105.86 339.77">
  <defs>
    <style>
      .cls-1 {
        fill: #fff;
      }

      .cls-2 {
        fill: #be1622;
      }
    </style>
  </defs>
  <g id="Calque_3" data-name="Calque 3">
    <g>
      <path class="cls-2" d="M984.2,0c-18.47,32.72-41.83,64.78-71.25,97.81-53.18,59.7-105.73,98.57-160.68,118.85-61.77,22.8-126.69,19.48-173.67-8.86-14.34-8.65-28.41-20.34-43.3-32.7-3.14-2.6-6.27-5.21-9.42-7.8-48.89-40.16-124.44-95.47-215.6-111.99-42.97-7.79-84.39-6.45-124.44-5.15-19.92.65-40.35,1.49-60.11,2.32C84.08,54.21,40.99,56,0,56v108.24c43.24,0,87.47-1.84,130.24-3.62,19.51-.81,39.7-1.65,59.11-2.28,35.98-1.17,69.97-2.27,101.63,3.47,66.36,12.03,126.64,56.63,166.2,89.13,3,2.47,5.99,4.95,8.97,7.43,17.32,14.38,35.22,29.25,56.53,42.1,74.89,45.19,174.73,51.82,267.07,17.74,72.01-26.58,138.74-75.12,204.03-148.4,36.73-41.25,65.75-81.75,88.71-123.85,8.41-15.42,16.2-30.66,23.37-45.72"/>
      <path class="cls-1" d="M108.99,93.79l1.1,27.04C76.6,122.19,37.71,123.65,0,123.65v-27.06c37.2,0,75.76-1.44,108.99-2.79ZM245.06,89.91c21.75.46,40.71,2.21,57.99,5.34,25.76,4.67,52.12,13.24,78.35,25.47l-11.43,24.52c-24.13-11.25-48.27-19.11-71.74-23.36-15.86-2.88-33.43-4.48-53.74-4.92l.58-27.05ZM497.21,196.29l2.91,2.37c3.09,2.54,6.17,5.1,9.25,7.66,16.1,13.37,31.31,26,48.26,36.23,14.98,9.04,31.49,16.13,49.08,21.08l-7.33,26.05c-19.93-5.61-38.68-13.67-55.74-23.96-18.69-11.28-35.4-25.16-51.56-38.58-3.05-2.53-6.09-5.05-9.14-7.57l-2.82-2.31,17.09-20.97ZM766.33,254.75c28.48-10.52,56.88-25.77,84.39-45.33l15.68,22.05c-29.46,20.94-59.97,37.32-90.7,48.66-11.62,4.29-23.61,7.92-35.65,10.79l-6.27-26.33c10.99-2.62,21.94-5.93,32.55-9.84ZM1023.08,13.61l.77-1.42,23.76,12.94-.76,1.4c-20.53,37.65-46.35,74.04-78.93,111.26l-20.36-17.83c31.26-35.71,55.97-70.5,75.52-106.34Z"/>
    </g>
  </g>
</svg>